<?xml version="1.0" encoding="UTF-8" standalone="no"?>
<!-- Created with Inkscape (http://www.inkscape.org/) -->

<svg
   width="90.020088mm"
   height="117.47256mm"
   viewBox="0 0 90.020088 117.47256"
   version="1.1"
   id="svg11570"
   sodipodi:docname="SuperComputerKlubben_logo1.svg"
   inkscape:version="1.3.2 (091e20ef0f, 2023-11-25)"
   xmlns:inkscape="http://www.inkscape.org/namespaces/inkscape"
   xmlns:sodipodi="http://sodipodi.sourceforge.net/DTD/sodipodi-0.dtd"
   xmlns:xlink="http://www.w3.org/1999/xlink"
   xmlns="http://www.w3.org/2000/svg"
   xmlns:svg="http://www.w3.org/2000/svg">
  <sodipodi:namedview
     id="namedview1"
     pagecolor="#ffffff"
     bordercolor="#000000"
     borderopacity="0.25"
     inkscape:showpageshadow="2"
     inkscape:pageopacity="0.0"
     inkscape:pagecheckerboard="0"
     inkscape:deskcolor="#d1d1d1"
     inkscape:document-units="mm"
     inkscape:zoom="0.72159091"
     inkscape:cx="363.77953"
     inkscape:cy="530.77165"
     inkscape:window-width="1920"
     inkscape:window-height="1014"
     inkscape:window-x="0"
     inkscape:window-y="0"
     inkscape:window-maximized="1"
     inkscape:current-layer="svg11570" />
  <defs
     id="defs11567">
    <linearGradient
       xlink:href="#4b25e3f4-ca32-45b2-a4a9-9ac8be5885fa"
       id="linearGradient5183-9"
       x1="0"
       y1="33.862358"
       x2="0"
       y2="0.013389625"
       gradientTransform="scale(3.5705665,0.2800676)"
       gradientUnits="userSpaceOnUse" />
    <linearGradient
       x1="0"
       y1="1"
       x2="0"
       y2="0"
       id="4b25e3f4-ca32-45b2-a4a9-9ac8be5885fa">
      <stop
         offset="0%"
         stop-color="#2ebef3"
         id="stop3531" />
      <stop
         offset="100%"
         stop-color="#fffc9f"
         id="stop3533" />
    </linearGradient>
    <linearGradient
       xlink:href="#4b25e3f4-ca32-45b2-a4a9-9ac8be5885fa"
       id="linearGradient5661"
       gradientUnits="userSpaceOnUse"
       gradientTransform="scale(5.0635957,0.19748812)"
       x1="0"
       y1="26.533243"
       x2="0"
       y2="21.469646" />
    <linearGradient
       xlink:href="#4b25e3f4-ca32-45b2-a4a9-9ac8be5885fa"
       id="linearGradient5663"
       gradientUnits="userSpaceOnUse"
       gradientTransform="scale(5.0635957,0.19748812)"
       x1="18.804819"
       y1="26.533243"
       x2="18.804819"
       y2="21.469646" />
    <linearGradient
       xlink:href="#4b25e3f4-ca32-45b2-a4a9-9ac8be5885fa"
       id="linearGradient5667"
       gradientUnits="userSpaceOnUse"
       gradientTransform="scale(2.5897396,0.38613921)"
       x1="0.001448022"
       y1="24.560444"
       x2="0.001448022"
       y2="0.0097115235" />
    <linearGradient
       xlink:href="#4b25e3f4-ca32-45b2-a4a9-9ac8be5885fa"
       id="linearGradient5177-7"
       x1="0.25485188"
       y1="1.0099984"
       x2="0.25485188"
       y2="-23.540733"
       gradientTransform="scale(2.5897396,0.38613921)"
       gradientUnits="userSpaceOnUse" />
    <linearGradient
       xlink:href="#4b25e3f4-ca32-45b2-a4a9-9ac8be5885fa"
       id="linearGradient10745"
       x1="796.71686"
       y1="64.152901"
       x2="794.7926"
       y2="-13.355831"
       gradientUnits="userSpaceOnUse"
       gradientTransform="translate(-747.88979,27.573968)" />
    <linearGradient
       xlink:href="#4b25e3f4-ca32-45b2-a4a9-9ac8be5885fa"
       id="linearGradient12081"
       gradientUnits="userSpaceOnUse"
       gradientTransform="scale(2.5897396,0.38613921)"
       x1="0.001448022"
       y1="24.560444"
       x2="0.001448022"
       y2="0.0097115235" />
    <linearGradient
       xlink:href="#4b25e3f4-ca32-45b2-a4a9-9ac8be5885fa"
       id="linearGradient12083"
       gradientUnits="userSpaceOnUse"
       x1="796.71686"
       y1="64.152901"
       x2="794.7926"
       y2="-13.355831"
       gradientTransform="translate(-747.88979,27.573968)" />
    <linearGradient
       xlink:href="#4b25e3f4-ca32-45b2-a4a9-9ac8be5885fa"
       id="linearGradient12085"
       gradientUnits="userSpaceOnUse"
       x1="796.71686"
       y1="64.152901"
       x2="794.7926"
       y2="-13.355831"
       gradientTransform="translate(-747.88979,27.573968)" />
  </defs>
  <g
     id="layer1"
     transform="translate(-8.6393063,-8.2377442)">
    <g
       data-v-70b83f88=""
       fill="#d9ead3"
       class="icon-text-wrapper icon-svg-group iconsvg"
       transform="matrix(0.26458333,0,0,0.26458334,-251.07006,-22.608902)"
       id="g3529-8-1">
      <g
         transform="matrix(2.5999802,0,0,2.5999802,981.57872,414.76733)"
         id="g3527-1-5">
        <g
           data-gra="path-name"
           fill-rule=""
           class="tp-name iconsvg-namesvg"
           id="g3513-5-8">
          <g
             id="g3511-2-2">
            <g
               id="g3503-0-4">
              <path
                 d="m 8.32,-12.51 v 0 l -13.67,-1.45 h 13.9 q -0.17,0.64 -0.23,1.45 z M -4.45,-17.06 H 9.42 l -0.49,1.42 z m -0.61,6.19 H 8.32 q 0.06,0.87 0.26,1.45 v 0 z m 17.9,4.55 v 0 L -4.22,-7.77 H 9.67 q 1.07,1.03 3.17,1.45 z M -2.03,-20.16 h 13.87 q -0.75,0.49 -1.42,1.33 v 0 z M 6.8,-3.26 -4.77,-4.68 H 7.29 Z M 5.77,-0.13 -5.32,-1.55 H 6.26 Z m 1.1,-0.22 1.81,-5.33 q 2.7,0.75 4.95,0.75 2.24,0 3.66,-0.2 v 0 L 17.54,-6.74 14.87,-7 q -3.07,-0.29 -4.34,-1.38 -1.27,-1.1 -1.27,-3.1 v 0 q 0,-0.87 0.19,-1.94 v 0 q 0.74,-4.12 2.71,-5.67 1.97,-1.55 6.04,-1.55 4.08,0 7.21,0.81 v 0 l -1.67,5.16 q -2.81,-0.49 -4.5,-0.49 -1.7,0 -2.92,0.16 v 0 l -0.26,1.58 2.16,0.23 q 3.29,0.35 4.68,1.56 1.38,1.21 1.38,3.25 v 0 q 0,2.06 -0.87,4.25 v 0 q -0.48,1.13 -1.01,1.89 -0.53,0.76 -1.36,1.29 -0.82,0.53 -1.5,0.8 -0.67,0.28 -1.74,0.41 v 0 q -1.48,0.22 -3.67,0.22 v 0 q -4,0 -7.26,-0.83 z m 26.8,-13.61 -0.26,1.45 -13.67,-1.45 z m -0.55,3.09 -0.26,1.45 -13.64,-1.45 z m 1.64,-9.29 -0.25,1.46 -13.64,-1.46 z m -0.8,4.55 -13.64,-1.45 h 13.9 z m -15.19,7.84 h 13.8 q -0.13,1.06 -0.16,1.45 v 0 z m 0.03,3.09 h 13.55 q 0,0.78 0.09,1.46 v 0 z m 1.48,3.13 h 12.61 q 0.42,0.91 1.04,1.45 v 0 z m 18.94,-3.48 h 2.19 q 1.13,0 1.61,-0.31 0.48,-0.3 0.68,-1.4 v 0 l 2.38,-13.42 h 6.13 l -2,11.32 q -0.48,2.74 -1.11,4.42 -0.63,1.68 -1.76,2.84 -1.13,1.16 -2.79,1.61 -1.66,0.45 -4.21,0.45 v 0 q -3.9,0 -5.46,-1.17 -1.57,-1.18 -1.57,-4.05 v 0 q 0,-1.58 0.46,-4.1 v 0 l 1.99,-11.32 h 6.13 z m 30.31,0.16 v 0 h -4 L 64.69,0 h -6.13 l 3.55,-20.16 h 9.68 q 5.48,0 5.48,5.1 v 0 q 0,2.42 -0.68,4.37 -0.67,1.95 -1.5,3.1 -0.82,1.14 -2.25,1.93 -1.44,0.79 -3.31,0.79 z m -3.1,-5.16 h 1.42 q 1.1,0 1.66,-0.24 0.57,-0.24 0.73,-1.11 v 0 q 0.42,-2.39 0.42,-2.62 v 0 q 0,-0.61 -0.49,-0.8 -0.48,-0.2 -1.45,-0.2 v 0 H 67.3 Z M 57.86,-1.55 57.6,-0.1 43.92,-1.55 Z m 1.09,-6.22 -0.26,1.45 -13.67,-1.45 z m 1.07,-6.19 -0.26,1.45 -13.64,-1.45 z m 0.54,-3.1 -0.25,1.45 -13.65,-1.45 z M 58.4,-4.68 58.15,-3.22 44.47,-4.68 Z m 2.71,-15.48 -0.26,1.46 -13.64,-1.46 z m -1.64,9.29 -0.26,1.45 -13.64,-1.45 z m 38.31,-1.42 -0.84,4.68 h -6.13 l -0.41,2.45 h 7.51 L 97.01,0 H 83.36 l 3.55,-20.16 h 13.48 L 98.72,-15 H 92.1 l -0.45,2.71 z M 82.66,-1.55 82.4,-0.1 68.72,-1.55 Z m 1.09,-6.22 -0.26,1.45 -13.67,-1.45 z m 0.55,-3.1 -0.26,1.45 -13.67,-1.45 z m 0.55,-3.09 -0.26,1.45 -13.67,-1.45 z m 0.51,-3.1 -0.22,1.45 -13.68,-1.45 z M 83.2,-4.68 82.95,-3.22 69.27,-4.68 Z m 2.71,-15.48 -0.26,1.46 -13.64,-1.46 z m 24.42,0 H 120 q 5.51,0 5.51,4.94 v 0 q 0,2.03 -0.61,3.87 v 0 q -1.13,3.48 -3.55,4.64 v 0 L 123.48,0 h -6.74 l -1.48,-6 h -1.32 l -1.03,6 h -6.13 z m 4.48,9.2 h 1.42 q 1.09,0 1.66,-0.25 0.56,-0.24 0.77,-1.38 0.21,-1.15 0.21,-1.41 v 0 q 0,-0.64 -0.5,-0.82 -0.5,-0.18 -1.63,-0.18 v 0 h -1.22 z m -8.74,9.41 -0.26,1.45 -13.67,-1.45 z m 1.09,-6.22 -0.25,1.45 -13.68,-1.45 z m 1.07,-6.19 -0.26,1.45 -13.64,-1.45 z m 0.55,-3.1 -0.26,1.45 -13.64,-1.45 z m -2.16,12.38 -0.26,1.46 -13.68,-1.46 z m 2.71,-15.48 -0.26,1.46 -13.64,-1.46 z m -1.65,9.29 -0.26,1.45 -13.64,-1.45 z"
                 transform="translate(5.3499999,20.639999)"
                 id="path3501-7-2" />
            </g>
            <!---->
            <!---->
            <!---->
            <!---->
            <!---->
            <!---->
            <g
               data-gra="path-name-1"
               fill="#d9ead3"
               transform="translate(0,24.119999)"
               id="g3509-4-9">
              <g
                 transform="scale(1.05218)"
                 id="g3507-7-7">
                <path
                   d="m 13.44,-4.51 v 0 l -0.02,2.97 q -0.87,0.17 -1.73,0.32 -0.86,0.16 -1.73,0.27 v 0 q -0.91,0.11 -1.82,0.21 -0.92,0.09 -1.83,0.09 v 0 Q 6.04,-0.65 5.53,-0.67 5.02,-0.68 4.47,-0.74 3.92,-0.8 3.42,-0.88 2.93,-0.97 2.7,-1.1 v 0 Q 2.49,-1.24 2.3,-1.42 2.11,-1.6 1.96,-1.79 v 0 Q 1.56,-2.28 1.29,-2.87 1.03,-3.46 0.87,-4.09 0.72,-4.71 0.66,-5.36 0.59,-6.01 0.59,-6.63 v 0 q 0,-0.76 0.08,-1.58 0.09,-0.82 0.28,-1.62 0.19,-0.8 0.5,-1.54 0.32,-0.74 0.77,-1.37 v 0 q 0.14,-0.17 0.35,-0.41 0.21,-0.25 0.41,-0.37 v 0 q 0.52,-0.28 1.15,-0.47 0.64,-0.19 1.33,-0.29 0.68,-0.11 1.35,-0.16 0.68,-0.04 1.25,-0.04 v 0 q 1.08,0 2.17,0.12 1.08,0.12 2.11,0.43 v 0 q -0.04,0.51 -0.06,1.03 -0.02,0.53 -0.02,1.04 v 0 q 0,1.23 0.06,2.49 v 0 Q 11.46,-9.69 10.53,-9.84 9.6,-9.98 8.69,-9.98 v 0 q -0.19,0 -0.55,0.03 -0.37,0.03 -0.82,0.08 -0.46,0.04 -0.94,0.12 -0.49,0.07 -0.91,0.19 -0.41,0.11 -0.73,0.26 -0.31,0.16 -0.41,0.33 v 0 q -0.07,0.15 -0.12,0.43 -0.05,0.27 -0.08,0.58 -0.02,0.3 -0.03,0.58 -0.01,0.29 -0.01,0.46 v 0 q 0,0.17 0.03,0.69 0.04,0.51 0.1,1.09 0.06,0.58 0.14,1.05 0.09,0.48 0.18,0.55 v 0 q 0.1,0.06 0.32,0.07 0.22,0.01 0.29,0.01 v 0 q 0.93,0 2,-0.09 1.06,-0.1 2.15,-0.26 1.1,-0.16 2.16,-0.34 1.07,-0.18 1.98,-0.36 z m 17.58,-3.61 v 0 q 0,0.25 0,0.49 0,0.24 -0.02,0.46 v 0 q -0.02,0.19 -0.04,0.67 -0.03,0.47 -0.08,1.09 -0.05,0.62 -0.11,1.3 -0.07,0.69 -0.16,1.27 -0.08,0.58 -0.18,1 -0.09,0.41 -0.19,0.51 v 0 q -0.57,0.57 -1.36,0.85 -0.79,0.27 -1.64,0.37 -0.86,0.09 -1.71,0.07 -0.86,-0.02 -1.6,-0.02 v 0 q -0.25,0 -0.83,-0.01 Q 22.51,-0.08 21.76,-0.1 21,-0.11 20.19,-0.16 19.37,-0.21 18.66,-0.29 17.94,-0.38 17.42,-0.5 16.9,-0.63 16.77,-0.82 v 0 Q 16.61,-1.03 16.5,-1.27 16.39,-1.52 16.29,-1.75 v 0 Q 16.04,-2.38 15.83,-3.09 15.63,-3.8 15.48,-4.55 15.34,-5.3 15.25,-6.04 15.17,-6.79 15.17,-7.45 v 0 q 0,-0.36 0.06,-0.94 0.05,-0.58 0.15,-1.26 0.09,-0.67 0.23,-1.38 0.13,-0.7 0.29,-1.31 0.16,-0.6 0.35,-1.05 0.19,-0.45 0.42,-0.6 v 0 q 0.19,-0.13 0.7,-0.25 0.52,-0.11 1.2,-0.2 0.69,-0.08 1.47,-0.15 0.77,-0.07 1.48,-0.11 0.7,-0.05 1.27,-0.07 0.57,-0.02 0.84,-0.02 v 0 q 0.36,0 0.98,0.04 0.61,0.04 1.34,0.12 0.72,0.09 1.46,0.21 0.74,0.13 1.38,0.3 0.64,0.17 1.09,0.38 0.46,0.21 0.57,0.45 v 0 q 0.1,0.21 0.18,0.6 0.09,0.39 0.14,0.89 0.06,0.49 0.11,1.04 0.05,0.55 0.08,1.06 0.02,0.5 0.04,0.92 0.02,0.42 0.02,0.66 z m -3.4,0.63 v 0 q 0,-0.38 -0.04,-0.81 -0.04,-0.42 -0.25,-0.75 v 0 Q 27.18,-9.28 26.6,-9.41 26.02,-9.54 25.33,-9.6 24.64,-9.66 23.99,-9.67 23.34,-9.68 23.08,-9.68 v 0 q -0.21,0 -0.74,0.04 -0.52,0.04 -1.1,0.13 -0.58,0.08 -1.07,0.21 -0.5,0.12 -0.61,0.29 v 0 q -0.11,0.13 -0.18,0.5 -0.07,0.37 -0.11,0.8 -0.05,0.43 -0.07,0.82 -0.02,0.39 -0.02,0.56 v 0 q 0,0.15 0.01,0.46 0.01,0.3 0.05,0.62 0.03,0.33 0.08,0.61 0.05,0.29 0.14,0.42 v 0 q 0.06,0.1 0.35,0.17 0.28,0.08 0.69,0.14 0.41,0.07 0.87,0.11 0.45,0.04 0.88,0.06 0.43,0.03 0.76,0.04 0.33,0.01 0.47,0.01 v 0 q 0.22,0 0.78,-0.04 0.57,-0.03 1.18,-0.12 0.62,-0.08 1.14,-0.21 0.53,-0.12 0.68,-0.29 v 0 q 0.11,-0.14 0.19,-0.56 0.07,-0.43 0.11,-0.94 0.04,-0.5 0.05,-0.96 0.01,-0.47 0.01,-0.68 z m 22.07,6.96 V 0.32 Q 49.33,0.3 48.99,0.27 v 0 Q 48.7,0.23 48.42,0.21 48.15,0.19 48.02,0.19 v 0 q -0.75,0 -1.49,0.03 -0.74,0.03 -1.46,0.1 v 0 q 0.02,-0.8 0.03,-1.57 0.01,-0.76 0.01,-1.56 v 0 q 0,-1.43 -0.05,-2.84 -0.05,-1.4 -0.09,-2.81 v 0 l -3.99,9.03 q -0.87,-2.38 -1.87,-4.67 -1,-2.29 -2.08,-4.57 v 0 l 0.3,9.39 Q 37.12,0.72 36.91,0.71 36.69,0.7 36.46,0.7 v 0 q -0.72,0 -1.42,0.06 -0.69,0.06 -1.39,0.11 v 0 q 0.09,-1.76 0.19,-3.51 0.09,-1.75 0.09,-3.52 v 0 q 0,-2.07 -0.03,-4.12 -0.03,-2.06 -0.05,-4.13 v 0 q 1.37,0 2.68,-0.07 1.3,-0.08 2.67,-0.21 v 0 q 0.45,1.52 0.94,3.01 0.48,1.49 1.03,2.97 v 0 q 0.59,-1.4 1.34,-2.75 0.75,-1.35 1.53,-2.68 v 0 q 1.3,-0.04 2.56,-0.08 1.26,-0.04 2.56,-0.06 v 0 q 0.05,1.72 0.14,3.39 0.08,1.67 0.16,3.38 v 0 q 0.06,1.35 0.11,2.7 0.04,1.35 0.08,2.68 v 0 z m 16.73,-9.01 v 0 q 0,0.42 -0.05,1.01 -0.05,0.58 -0.15,1.19 -0.11,0.61 -0.3,1.14 -0.19,0.54 -0.47,0.84 v 0 q -0.12,0.13 -0.74,0.26 -0.61,0.12 -1.48,0.24 -0.86,0.13 -1.85,0.24 -0.99,0.11 -1.87,0.2 -0.89,0.09 -1.53,0.14 -0.65,0.06 -0.82,0.06 v 0 l -0.15,3.95 q -0.59,0.04 -1.16,0.01 -0.57,-0.03 -1.16,-0.03 v 0 q -0.38,0 -0.76,0.02 -0.38,0.02 -0.76,0.06 v 0 q 0,-1.79 0,-3.53 0,-1.75 -0.08,-3.54 v 0 q -0.06,-1.62 -0.1,-3.21 -0.05,-1.6 -0.09,-3.22 v 0 q 1.96,-0.13 3.95,-0.33 1.98,-0.2 3.96,-0.2 v 0 q 0.34,0 1.08,0.07 0.74,0.07 1.56,0.21 0.82,0.14 1.51,0.35 0.7,0.21 0.92,0.48 v 0 q 0.16,0.17 0.26,0.66 0.11,0.49 0.16,1.06 0.06,0.56 0.09,1.09 0.03,0.53 0.03,0.78 z m -5.33,-0.14 v 0 q 0,-0.17 -0.02,-0.43 -0.01,-0.27 -0.06,-0.53 -0.05,-0.25 -0.14,-0.47 -0.1,-0.22 -0.25,-0.31 v 0 q -0.1,-0.06 -0.31,-0.1 -0.2,-0.04 -0.43,-0.06 -0.23,-0.02 -0.44,-0.02 -0.21,-0.01 -0.3,-0.01 v 0 q -0.71,0 -1.41,0.07 -0.7,0.08 -1.43,0.19 v 0 q 0.06,0.57 0.07,1.12 0.01,0.55 0.01,1.11 v 0 q 0,0.89 0.06,1.8 v 0 q 0.24,0 0.85,-0.03 0.61,-0.03 1.28,-0.09 0.66,-0.07 1.25,-0.19 0.59,-0.13 0.8,-0.33 v 0 q 0.34,-0.33 0.41,-0.79 0.06,-0.47 0.06,-0.93 z m 21.94,3.41 v 0 q 0,1.08 -0.05,2.15 -0.05,1.06 -0.2,2.14 v 0 q -0.3,0.23 -0.61,0.43 -0.3,0.2 -0.62,0.43 v 0 q -0.27,0.17 -0.58,0.39 -0.32,0.22 -0.66,0.43 -0.34,0.2 -0.69,0.37 -0.35,0.16 -0.66,0.22 v 0 Q 78.68,0.36 78.2,0.35 77.73,0.34 77.4,0.34 v 0 q -0.8,0.04 -1.59,0.06 -0.8,0.02 -1.64,0.02 v 0 q -0.38,0 -0.87,0.01 -0.5,0.01 -0.9,-0.09 v 0 Q 72.29,0.32 72.02,0.16 71.76,0 71.42,-0.24 71.09,-0.48 70.73,-0.75 70.37,-1.03 70.04,-1.28 69.7,-1.54 69.47,-1.74 69.23,-1.94 69.13,-2.01 v 0 q -0.09,-1.01 -0.14,-2.01 -0.05,-1 -0.05,-2.01 v 0 q 0,-1.95 0.15,-3.87 0.14,-1.92 0.31,-3.86 v 0 l 3.92,-0.1 q -0.19,1.22 -0.27,2.58 -0.08,1.36 -0.08,2.61 v 0 q 0,0.21 0.02,0.73 0.02,0.53 0.08,1.12 0.06,0.59 0.14,1.08 0.09,0.49 0.22,0.65 v 0 q 0.06,0.05 0.29,0.1 0.24,0.05 0.58,0.09 0.33,0.03 0.71,0.05 0.38,0.02 0.72,0.03 0.34,0.01 0.61,0.02 0.26,0.01 0.38,0.01 v 0 q 0.09,0 0.32,0 0.23,0 0.47,-0.01 0.24,-0.01 0.44,-0.03 0.21,-0.02 0.29,-0.07 v 0 q 0.23,-0.16 0.34,-0.75 0.12,-0.58 0.17,-1.29 0.06,-0.7 0.06,-1.35 0,-0.64 0,-0.93 v 0 q 0,-0.44 0.01,-0.87 0.01,-0.44 0.01,-0.88 v 0 q 0,-0.89 -0.02,-1.76 -0.02,-0.86 -0.06,-1.75 v 0 q 0.4,0.03 0.79,0.04 0.39,0.01 0.79,0.01 v 0 q 0.48,0 0.94,-0.02 0.47,-0.02 0.92,-0.11 v 0 q 0.4,2.03 0.62,4.11 0.22,2.09 0.22,4.18 z m 13.61,-4.79 v 0 1.33 l -3.67,0.19 q -0.07,1.1 -0.11,2.18 -0.04,1.09 -0.04,2.17 v 0 q 0,1.33 -0.07,2.65 -0.06,1.32 -0.16,2.64 v 0 q -0.68,0.03 -1.37,0.06 -0.68,0.03 -1.37,0.03 v 0 Q 89.61,0.19 89.37,0.18 89.13,0.17 88.9,0.17 v 0 Q 88.94,-0.99 88.97,-2.14 89,-3.29 89,-4.43 v 0 q 0,-1.14 -0.06,-2.29 -0.06,-1.15 -0.13,-2.31 v 0 q -0.55,0.02 -1.11,0.04 -0.56,0.02 -1.13,0.02 v 0 q -0.33,0 -0.64,0 -0.32,0 -0.64,-0.02 v 0 q -0.06,-1.41 -0.07,-2.8 -0.02,-1.38 -0.04,-2.77 v 0 q 2.85,0.06 5.66,0.16 2.82,0.11 5.65,0.18 v 0 q 0.07,0.82 0.11,1.59 0.04,0.77 0.04,1.57 z m 12.66,-3.04 0.21,2.52 q -1.86,0.1 -3.7,0.2 -1.83,0.11 -3.7,0.26 v 0 l -0.03,1.5 4.9,-0.28 q 0.1,0.64 0.14,1.27 0.05,0.63 0.05,1.27 v 0 q 0,0.27 -0.01,0.55 -0.01,0.29 -0.01,0.56 v 0 l -4.56,0.81 0.28,2.36 q 1.45,-0.09 2.88,-0.28 1.44,-0.18 2.9,-0.31 v 0 q 0.14,0.95 0.27,1.91 0.13,0.96 0.38,1.87 v 0 q -2.7,-0.01 -5.36,0.01 -2.66,0.03 -5.36,0.03 v 0 q 0.06,-2.22 0.13,-4.43 0.08,-2.2 0.08,-4.44 v 0 -0.37 q 0,-1.29 -0.04,-2.57 -0.04,-1.28 -0.08,-2.6 v 0 q 1.51,0.02 3,0.01 1.49,-0.01 3.01,-0.01 v 0 q 1.16,0 2.31,0.05 1.15,0.05 2.31,0.11 z m 15.66,4.54 v 0 q 0,1.56 -0.95,2.45 -0.95,0.89 -2.51,0.97 v 0 q 1.89,3.14 3.29,6.43 v 0 l -5.55,0.13 q -0.15,-1.54 -0.46,-2.83 -0.3,-1.3 -0.85,-2.72 v 0 q -0.63,0.04 -1.25,0.09 -0.61,0.06 -1.22,0.1 v 0 l 0.09,4.31 q -1.08,0.06 -2.16,0.06 v 0 q -0.55,0 -1.08,-0.02 -0.52,-0.02 -1.05,-0.08 v 0 q 0.13,-1.74 0.24,-3.48 0.12,-1.74 0.14,-3.47 v 0 q 0.05,-3.08 0.17,-6.16 v 0 q 1.79,-0.1 3.56,-0.21 1.78,-0.11 3.57,-0.11 v 0 q 0.45,0 0.99,0.01 0.53,0.02 1.07,0.11 0.54,0.08 1.04,0.24 0.51,0.15 0.91,0.4 v 0 q 0.97,0.6 1.49,1.62 0.52,1.02 0.52,2.16 z m -4.41,-0.31 v 0 q 0,-0.15 -0.01,-0.41 -0.01,-0.27 -0.04,-0.55 -0.04,-0.27 -0.12,-0.51 -0.07,-0.24 -0.21,-0.35 v 0 q -0.09,-0.08 -0.32,-0.11 -0.23,-0.04 -0.49,-0.07 -0.25,-0.03 -0.49,-0.04 -0.24,-0.01 -0.33,-0.01 v 0 q -0.76,0 -1.49,0.08 -0.74,0.07 -1.46,0.19 v 0 l 0.51,3.69 q 0.42,0.09 0.88,0.13 0.46,0.04 0.89,0.04 v 0 q 0.19,0 0.56,-0.02 0.37,-0.02 0.76,-0.08 0.39,-0.06 0.73,-0.16 0.33,-0.1 0.46,-0.28 v 0 q 0.06,-0.07 0.1,-0.29 0.03,-0.22 0.04,-0.46 0.01,-0.23 0.02,-0.46 0.01,-0.23 0.01,-0.33 z"
                   transform="translate(-0.59000003,14.79)"
                   id="path3505-9-5" />
              </g>
            </g>
          </g>
        </g>
        <g
           data-gra="path-slogan"
           fill-rule=""
           class="tp-slogan iconsvg-slogansvg"
           fill="url(#4b25e3f4-ca32-45b2-a4a9-9ac8be5885fa)"
           transform="translate(5,46.597137)"
           id="g3525-0-3"
           style="fill:url(#linearGradient5183-9)">
          <rect
             x="0"
             height="1"
             y="4.2400002"
             width="25.640001"
             id="rect3515-8-2"
             style="fill:url(#linearGradient5661)" />
          <rect
             height="1"
             y="4.2400002"
             width="25.640001"
             x="95.220001"
             id="rect3517-2-7"
             style="fill:url(#linearGradient5663)" />
          <g
             transform="translate(28.640001)"
             id="g3523-7-8"
             style="fill:url(#linearGradient5667)">
            <g
               id="g3521-0-5"
               style="fill:url(#linearGradient12081)">
              <path
                 d="m 9.82,-0.06 v 0 Q 9.26,0.07 8.7,0.18 8.14,0.29 7.57,0.39 v 0 Q 6.87,-0.68 6.18,-1.72 5.5,-2.75 4.76,-3.79 v 0 L 3.5,-2.57 3.39,0.04 Q 3.12,0.02 2.85,0.02 2.59,0.01 2.33,0.01 v 0 Q 2.09,0.01 1.85,0.02 1.62,0.04 1.38,0.07 v 0 Q 1.24,-1.01 1.12,-2.08 1,-3.15 0.9,-4.24 v 0 Q 0.81,-5.33 0.76,-6.42 0.7,-7.5 0.66,-8.59 v 0 q 0.88,0.02 1.74,0.03 0.86,0.01 1.74,0.03 v 0 L 4.07,-5.81 Q 4.7,-6.47 5.26,-7.15 5.82,-7.83 6.42,-8.53 v 0 Q 6.98,-8.57 7.56,-8.61 8.13,-8.65 8.7,-8.7 v 0 l -0.05,0.87 -2.49,2.59 q 0.89,1.33 1.8,2.6 0.91,1.28 1.86,2.58 z m 5.82,-2.42 0.18,2.19 q -1.39,0.1 -2.77,0.2 Q 11.67,0 10.28,0.08 v 0 q -0.06,-2.24 -0.1,-4.45 -0.03,-2.2 -0.13,-4.45 v 0 q 0.79,-0.02 1.55,-0.05 0.76,-0.04 1.54,-0.09 v 0 q -0.13,0.86 -0.24,1.74 -0.11,0.87 -0.17,1.75 v 0 q -0.05,0.74 -0.08,1.47 -0.03,0.73 -0.05,1.47 v 0 q 0.77,0.02 1.53,0.02 0.75,0 1.51,0.03 z m 10,-1.39 v 0 q 0,0.67 -0.03,1.33 -0.03,0.65 -0.12,1.32 v 0 q -0.19,0.14 -0.38,0.26 -0.18,0.13 -0.38,0.27 v 0 q -0.17,0.1 -0.36,0.24 -0.19,0.13 -0.41,0.26 -0.21,0.13 -0.42,0.23 -0.22,0.1 -0.41,0.14 v 0 Q 22.96,0.22 22.66,0.22 22.37,0.21 22.17,0.21 v 0 Q 21.68,0.23 21.19,0.25 20.7,0.26 20.18,0.26 v 0 q -0.23,0 -0.54,0 -0.3,0.01 -0.55,-0.05 v 0 Q 19.02,0.2 18.86,0.1 18.69,0 18.49,-0.15 18.28,-0.29 18.06,-0.46 17.84,-0.63 17.63,-0.79 17.43,-0.95 17.28,-1.07 17.13,-1.2 17.07,-1.24 v 0 q -0.05,-0.62 -0.08,-1.24 -0.03,-0.61 -0.03,-1.23 v 0 q 0,-1.21 0.08,-2.4 0.09,-1.18 0.2,-2.37 v 0 l 2.41,-0.06 q -0.11,0.75 -0.16,1.58 -0.05,0.84 -0.05,1.62 v 0 q 0,0.13 0.01,0.45 0.01,0.32 0.05,0.68 0.04,0.37 0.09,0.67 0.05,0.31 0.13,0.4 v 0 q 0.04,0.03 0.18,0.06 0.15,0.03 0.36,0.06 0.2,0.02 0.44,0.03 0.23,0.01 0.44,0.02 0.21,0.01 0.38,0.01 0.16,0.01 0.23,0.01 v 0 q 0.06,0 0.2,0 0.14,0 0.29,-0.01 0.14,0 0.27,-0.02 0.13,-0.01 0.18,-0.04 v 0 q 0.14,-0.1 0.21,-0.46 0.07,-0.36 0.1,-0.8 0.04,-0.43 0.04,-0.83 0,-0.4 0,-0.57 v 0 q 0,-0.27 0,-0.54 0.01,-0.27 0.01,-0.54 v 0 q 0,-0.55 -0.01,-1.09 Q 23.03,-8.38 23,-8.93 v 0 q 0.25,0.02 0.49,0.03 0.24,0.01 0.49,0.01 v 0 q 0.29,0 0.58,-0.02 0.28,-0.01 0.57,-0.07 v 0 q 0.24,1.26 0.38,2.54 0.13,1.28 0.13,2.57 z M 36.12,-5.8 v 0 q 0,0.2 -0.03,0.37 -0.02,0.18 -0.08,0.37 v 0 q -0.07,0.2 -0.27,0.38 -0.2,0.18 -0.44,0.34 -0.25,0.16 -0.51,0.27 -0.25,0.11 -0.43,0.17 v 0 q 0.06,0.01 0.23,0.04 0.18,0.03 0.37,0.07 0.2,0.05 0.36,0.12 0.16,0.06 0.21,0.13 v 0 q 0.08,0.14 0.14,0.35 0.05,0.2 0.07,0.43 0.03,0.23 0.04,0.45 0.01,0.21 0.01,0.38 v 0 q 0,0.05 0,0.12 0,0.06 -0.01,0.12 v 0 q -0.03,0.12 -0.17,0.31 -0.14,0.2 -0.32,0.4 -0.19,0.19 -0.37,0.36 -0.19,0.17 -0.28,0.24 v 0 q -0.13,0.1 -0.25,0.17 -0.12,0.07 -0.26,0.13 v 0 q -0.11,0.04 -0.46,0.07 -0.34,0.02 -0.73,0.04 -0.39,0.02 -0.73,0.02 -0.33,0.01 -0.45,0.01 v 0 Q 30.82,0.06 29.91,0.03 28.99,0 28.05,-0.05 v 0 q 0.03,-0.83 0.04,-1.66 0.01,-0.82 0.01,-1.67 v 0 q 0,-0.94 -0.06,-1.88 -0.06,-0.94 -0.13,-1.88 v 0 l -0.9,-0.08 q -0.06,-0.47 -0.09,-0.92 -0.03,-0.45 -0.07,-0.91 v 0 q 0.96,0.03 1.92,0.05 0.96,0.02 1.92,0.05 v 0 q 0.41,0.01 1.04,0.07 0.64,0.07 1.3,0.17 0.66,0.11 1.25,0.26 0.6,0.15 0.93,0.34 v 0 q 0.26,0.14 0.43,0.42 0.17,0.28 0.28,0.62 0.1,0.33 0.15,0.67 0.05,0.34 0.05,0.6 z M 33,-5.85 v 0 q 0,-0.11 -0.01,-0.3 -0.01,-0.18 -0.05,-0.37 -0.03,-0.18 -0.09,-0.35 -0.06,-0.16 -0.14,-0.27 v 0 q -0.03,-0.03 -0.13,-0.06 -0.11,-0.02 -0.23,-0.03 -0.12,-0.01 -0.24,-0.01 -0.12,0 -0.15,0 v 0 q -0.59,0 -1.16,0.06 -0.58,0.07 -1.15,0.16 v 0 q 0.07,0.57 0.13,1.15 0.06,0.57 0.14,1.15 v 0 q 0.14,0 0.55,-0.03 0.41,-0.02 0.87,-0.05 0.46,-0.04 0.86,-0.09 0.4,-0.06 0.52,-0.13 v 0 q 0.2,-0.12 0.24,-0.37 Q 33,-5.64 33,-5.85 Z m -0.09,3.31 v 0 q 0,-0.18 -0.05,-0.36 -0.05,-0.18 -0.19,-0.3 v 0 q -0.03,-0.03 -0.16,-0.06 -0.13,-0.02 -0.27,-0.03 -0.14,0 -0.27,-0.01 -0.13,0 -0.18,0 v 0 q -0.5,0 -0.99,0.05 -0.5,0.05 -0.99,0.11 v 0 L 30,-1.65 q 0.06,0 0.28,-0.01 0.21,-0.02 0.5,-0.03 0.29,-0.02 0.61,-0.04 0.32,-0.03 0.6,-0.06 0.28,-0.04 0.48,-0.08 0.2,-0.04 0.25,-0.1 v 0 q 0.1,-0.13 0.15,-0.27 0.04,-0.14 0.04,-0.3 z M 45.98,-5.8 v 0 q 0,0.2 -0.02,0.37 -0.02,0.18 -0.08,0.37 v 0 q -0.07,0.2 -0.27,0.38 -0.2,0.18 -0.45,0.34 -0.24,0.16 -0.5,0.27 -0.26,0.11 -0.43,0.17 v 0 q 0.06,0.01 0.23,0.04 0.18,0.03 0.37,0.07 0.19,0.05 0.36,0.12 0.16,0.06 0.21,0.13 v 0 q 0.08,0.14 0.13,0.35 0.06,0.2 0.08,0.43 0.02,0.23 0.03,0.45 0.02,0.21 0.02,0.38 v 0 q 0,0.05 0,0.12 0,0.06 -0.02,0.12 v 0 q -0.02,0.12 -0.16,0.31 -0.14,0.2 -0.33,0.4 -0.19,0.19 -0.37,0.36 -0.18,0.17 -0.27,0.24 v 0 q -0.13,0.1 -0.25,0.17 -0.13,0.07 -0.27,0.13 v 0 q -0.1,0.04 -0.45,0.07 -0.34,0.02 -0.73,0.04 -0.39,0.02 -0.73,0.02 -0.34,0.01 -0.45,0.01 v 0 Q 40.69,0.06 39.77,0.03 38.86,0 37.92,-0.05 v 0 q 0.03,-0.83 0.04,-1.66 0.01,-0.82 0.01,-1.67 v 0 q 0,-0.94 -0.06,-1.88 -0.06,-0.94 -0.13,-1.88 v 0 l -0.9,-0.08 q -0.06,-0.47 -0.09,-0.92 -0.03,-0.45 -0.08,-0.91 v 0 q 0.97,0.03 1.93,0.05 0.96,0.02 1.92,0.05 v 0 q 0.41,0.01 1.04,0.07 0.63,0.07 1.3,0.17 0.66,0.11 1.25,0.26 0.59,0.15 0.93,0.34 v 0 q 0.26,0.14 0.43,0.42 0.17,0.28 0.28,0.62 0.1,0.33 0.15,0.67 0.04,0.34 0.04,0.6 z m -3.11,-0.05 v 0 q 0,-0.11 -0.01,-0.3 -0.02,-0.18 -0.05,-0.37 -0.04,-0.18 -0.1,-0.35 -0.05,-0.16 -0.14,-0.27 v 0 q -0.02,-0.03 -0.12,-0.06 -0.11,-0.02 -0.23,-0.03 -0.13,-0.01 -0.24,-0.01 -0.12,0 -0.16,0 v 0 q -0.58,0 -1.16,0.06 -0.57,0.07 -1.14,0.16 v 0 q 0.07,0.57 0.12,1.15 0.06,0.57 0.15,1.15 v 0 q 0.14,0 0.55,-0.03 0.41,-0.02 0.87,-0.05 0.46,-0.04 0.86,-0.09 0.4,-0.06 0.52,-0.13 v 0 q 0.2,-0.12 0.24,-0.37 0.04,-0.25 0.04,-0.46 z m -0.1,3.31 v 0 q 0,-0.18 -0.04,-0.36 -0.05,-0.18 -0.19,-0.3 v 0 q -0.04,-0.03 -0.16,-0.06 -0.13,-0.02 -0.27,-0.03 -0.15,0 -0.27,-0.01 -0.13,0 -0.18,0 v 0 q -0.5,0 -1,0.05 -0.49,0.05 -0.98,0.11 v 0 l 0.19,1.49 q 0.06,0 0.27,-0.01 0.22,-0.02 0.51,-0.03 0.28,-0.02 0.61,-0.04 0.32,-0.03 0.6,-0.06 0.28,-0.04 0.48,-0.08 0.2,-0.04 0.25,-0.1 v 0 q 0.1,-0.13 0.14,-0.27 0.04,-0.14 0.04,-0.3 z m 11.14,-6.16 0.13,1.56 q -1.15,0.06 -2.28,0.13 -1.13,0.06 -2.28,0.15 v 0 l -0.03,0.93 3.03,-0.18 q 0.06,0.4 0.08,0.79 0.03,0.39 0.03,0.78 v 0 q 0,0.17 0,0.34 -0.01,0.18 -0.01,0.34 v 0 l -2.81,0.51 0.18,1.45 q 0.89,-0.06 1.77,-0.17 0.89,-0.11 1.79,-0.19 v 0 q 0.08,0.58 0.16,1.18 0.08,0.59 0.24,1.15 v 0 Q 52.24,0.06 50.6,0.08 48.96,0.09 47.3,0.09 v 0 q 0.03,-1.37 0.08,-2.73 0.05,-1.36 0.05,-2.74 v 0 -0.22 q 0,-0.8 -0.03,-1.59 -0.02,-0.79 -0.04,-1.6 v 0 q 0.92,0.01 1.84,0.01 0.92,-0.01 1.86,-0.01 v 0 q 0.71,0 1.42,0.03 0.71,0.03 1.43,0.06 z m 10.33,4.93 v 0 q 0,1.03 0,2.03 -0.01,1 -0.02,2.03 v 0 Q 63.49,0.26 62.78,0.26 v 0 q -0.35,0 -0.71,0.03 -0.36,0.04 -0.71,0.1 v 0 Q 60.91,-0.59 60.47,-1.54 60.02,-2.5 59.58,-3.47 v 0 q -0.33,-0.71 -0.62,-1.43 -0.3,-0.71 -0.59,-1.44 v 0 q -0.1,1.58 -0.22,3.15 -0.11,1.56 -0.18,3.14 v 0 l -2.53,-0.07 q -0.06,-2.25 -0.1,-4.47 -0.05,-2.23 -0.17,-4.48 v 0 l 4.58,-0.02 q 0.24,0.58 0.44,1.17 0.21,0.6 0.4,1.21 v 0 q 0.27,0.92 0.61,1.83 0.34,0.91 0.68,1.82 v 0 q -0.02,-1.46 -0.06,-2.92 -0.04,-1.45 -0.06,-2.93 v 0 l 2.37,0.28 q 0.04,1.22 0.08,2.43 0.03,1.21 0.03,2.43 z"
                 transform="translate(-0.65625,9.09375)"
                 id="path3519-3-4"
                 style="fill:url(#linearGradient5177-7)" />
            </g>
          </g>
        </g>
      </g>
    </g>
    <path
       style="fill:url(#linearGradient12083);fill-opacity:1;stroke-width:0.264583"
       d="m 35.373308,74.717092 -17.72817,-7.4384 V 32.070287 l 29.25768,-17.85215 -0.12396,35.704305 -27.15016,16.36447 z"
       id="path5414-1" />
    <path
       style="fill:url(#linearGradient12085);fill-opacity:1;stroke-width:0.264583"
       d="m 33.786218,19.523432 15.56441,-11.2856878 30.08659,18.2874018 0.0586,34.274006 -30.44596,-18.6509 0.11801,-31.700363 z"
       id="path5414-1-7" />
    <path
       style="fill:url(#linearGradient10745);fill-opacity:1;stroke-width:0.264583"
       d="m 81.517428,45.858212 2.42224,19.07225 -30.49137,17.60421 -30.08926,-16.41182 30.98281,-17.7448 27.74713,15.33049 z"
       id="path5414-1-7-5" />
  </g>
</svg>
